<?xml version="1.0" standalone="no"?><!DOCTYPE svg PUBLIC "-//W3C//DTD SVG 1.1//EN" "http://www.w3.org/Graphics/SVG/1.1/DTD/svg11.dtd"><svg xmlns:xlink="http://www.w3.org/1999/xlink" height="410" width="1040" xmlns="http://www.w3.org/2000/svg" style="font-family:open sans;font-size:12px;" version="1.1"><desc>Created with Highcharts 4.1.5</desc><defs><clipPath id="highcharts-63"><rect height="196" width="761" y="0" x="0"></rect></clipPath></defs><rect class=" highcharts-background" fill="#FFFFFF" strokeWidth="0" height="410" width="1040" y="0" x="0"></rect><g  class="highcharts-grid"></g><g  class="highcharts-grid"></g><g  class="highcharts-grid"></g><g  class="highcharts-grid"><path opacity="1"  stroke-width="1" stroke="#D8D8D8" d="M 115 332.5 L 876 332.5" fill="none"></path><path opacity="1"  stroke-width="1" stroke="#D8D8D8" d="M 115 267.5 L 876 267.5" fill="none"></path><path opacity="1"  stroke-width="1" stroke="#D8D8D8" d="M 115 201.5 L 876 201.5" fill="none"></path><path opacity="1"  stroke-width="1" stroke="#D8D8D8" d="M 115 135.5 L 876 135.5" fill="none"></path></g><g  class="highcharts-axis"><path opacity="1" stroke-width="1" stroke="#C0D0E0" d="M 173.5 332 L 173.5 342" fill="none"></path><path opacity="1" stroke-width="1" stroke="#C0D0E0" d="M 231.5 332 L 231.5 342" fill="none"></path><path opacity="1" stroke-width="1" stroke="#C0D0E0" d="M 290.5 332 L 290.5 342" fill="none"></path><path opacity="1" stroke-width="1" stroke="#C0D0E0" d="M 348.5 332 L 348.5 342" fill="none"></path><path opacity="1" stroke-width="1" stroke="#C0D0E0" d="M 407.5 332 L 407.5 342" fill="none"></path><path opacity="1" stroke-width="1" stroke="#C0D0E0" d="M 465.5 332 L 465.5 342" fill="none"></path><path opacity="1" stroke-width="1" stroke="#C0D0E0" d="M 524.5 332 L 524.5 342" fill="none"></path><path opacity="1" stroke-width="1" stroke="#C0D0E0" d="M 582.5 332 L 582.5 342" fill="none"></path><path opacity="1" stroke-width="1" stroke="#C0D0E0" d="M 641.5 332 L 641.5 342" fill="none"></path><path opacity="1" stroke-width="1" stroke="#C0D0E0" d="M 699.5 332 L 699.5 342" fill="none"></path><path opacity="1" stroke-width="1" stroke="#C0D0E0" d="M 758.5 332 L 758.5 342" fill="none"></path><path opacity="1" stroke-width="1" stroke="#C0D0E0" d="M 816.5 332 L 816.5 342" fill="none"></path><path opacity="1" stroke-width="1" stroke="#C0D0E0" d="M 876.5 332 L 876.5 342" fill="none"></path><path opacity="1" stroke-width="1" stroke="#C0D0E0" d="M 114.5 332 L 114.5 342" fill="none"></path><path visibility="visible"  stroke-width="1" stroke="#C0D0E0" d="M 115 332.5 L 876 332.5" fill="none"></path></g><g  class="highcharts-axis"><path opacity="1" stroke-width="1" stroke="#C0D0E0" d="M 173.5 136 L 173.5 126" fill="none"></path><path opacity="1" stroke-width="1" stroke="#C0D0E0" d="M 231.5 136 L 231.5 126" fill="none"></path><path opacity="1" stroke-width="1" stroke="#C0D0E0" d="M 290.5 136 L 290.5 126" fill="none"></path><path opacity="1" stroke-width="1" stroke="#C0D0E0" d="M 348.5 136 L 348.5 126" fill="none"></path><path opacity="1" stroke-width="1" stroke="#C0D0E0" d="M 407.5 136 L 407.5 126" fill="none"></path><path opacity="1" stroke-width="1" stroke="#C0D0E0" d="M 465.5 136 L 465.5 126" fill="none"></path><path opacity="1" stroke-width="1" stroke="#C0D0E0" d="M 524.5 136 L 524.5 126" fill="none"></path><path opacity="1" stroke-width="1" stroke="#C0D0E0" d="M 582.5 136 L 582.5 126" fill="none"></path><path opacity="1" stroke-width="1" stroke="#C0D0E0" d="M 641.5 136 L 641.5 126" fill="none"></path><path opacity="1" stroke-width="1" stroke="#C0D0E0" d="M 699.5 136 L 699.5 126" fill="none"></path><path opacity="1" stroke-width="1" stroke="#C0D0E0" d="M 758.5 136 L 758.5 126" fill="none"></path><path opacity="1" stroke-width="1" stroke="#C0D0E0" d="M 816.5 136 L 816.5 126" fill="none"></path><path opacity="1" stroke-width="1" stroke="#C0D0E0" d="M 876.5 136 L 876.5 126" fill="none"></path><path opacity="1" stroke-width="1" stroke="#C0D0E0" d="M 114.5 136 L 114.5 126" fill="none"></path><path visibility="visible"  stroke-width="1" stroke="#C0D0E0" d="M 115 135.5 L 876 135.5" fill="none"></path></g><g  class="highcharts-axis"><text y="234" visibility="visible" style="color:#000000;fill:#000000;" class=" highcharts-yaxis-title" transform="translate(0,0) rotate(90 1013.533332824707 234)" text-anchor="middle"  x="1013.533332824707"><tspan>Sociology doctorates awarded (US)</tspan></text></g><g  class="highcharts-axis"><text y="234" visibility="visible" style="color:#ba0f27;fill:#ba0f27;" class=" highcharts-yaxis-title" transform="translate(0,0) rotate(270 26.21666717529297 234)" text-anchor="middle"  x="26.21666717529297"><tspan>Worldwide non-commercial space launches</tspan></text></g><g  class="highcharts-series-group"><g clip-path="url(#highcharts-63)" transform="translate(115,136) scale(1 1)"  visibility="visible" class="highcharts-series"><path stroke-linecap="round" stroke-linejoin="round"  stroke-width="2" stroke="#000000" d="M 29.26923076923077 97.02 C 29.26923076923077 97.02 64.3923076923077 112.89599999999999 87.8076923076923 118.58 C 111.2230769230769 124.264 122.93076923076924 125.44 146.34615384615384 125.44 C 169.76153846153846 125.44 181.46923076923076 81.34 204.8846153846154 81.34 C 228.3 81.34 240.00769230769228 117.6 263.4230769230769 131.32 C 286.8384615384615 145.03999999999996 298.5461538461538 149.94 321.96153846153845 149.94 C 345.37692307692305 149.94 357.0846153846154 100.94 380.5 100.94 C 403.9153846153846 100.94 415.62307692307695 105.64399999999999 439.03846153846155 117.6 C 462.4538461538462 129.556 474.1615384615385 160.72 497.5769230769231 160.72 C 520.9923076923076 160.72 532.7 118.58 556.1153846153845 118.58 C 579.5307692307691 118.58 591.2384615384615 121.52 614.6538461538461 121.52 C 638.0692307692307 121.52 649.776923076923 114.268 673.1923076923076 97.02 C 696.6076923076922 79.77199999999999 731.7307692307692 35.28 731.7307692307692 35.28" fill="none"></path></g><g clip-path="none" transform="translate(115,136) scale(1 1)"  visibility="visible" class="highcharts-markers"><path d="M 731 31.28 C 736.328 31.28 736.328 39.28 731 39.28 C 725.672 39.28 725.672 31.28 731 31.28 Z" fill="#000000"></path><path d="M 673 93.02 C 678.328 93.02 678.328 101.02 673 101.02 C 667.672 101.02 667.672 93.02 673 93.02 Z" fill="#000000"></path><path d="M 614 117.52 C 619.328 117.52 619.328 125.52 614 125.52 C 608.672 125.52 608.672 117.52 614 117.52 Z" fill="#000000"></path><path d="M 556 114.58 C 561.328 114.58 561.328 122.58 556 122.58 C 550.672 122.58 550.672 114.58 556 114.58 Z" fill="#000000"></path><path d="M 497 156.72 C 502.328 156.72 502.328 164.72 497 164.72 C 491.672 164.72 491.672 156.72 497 156.72 Z" fill="#000000"></path><path d="M 439 113.6 C 444.328 113.6 444.328 121.6 439 121.6 C 433.672 121.6 433.672 113.6 439 113.6 Z" fill="#000000"></path><path d="M 380 96.94 C 385.328 96.94 385.328 104.94 380 104.94 C 374.672 104.94 374.672 96.94 380 96.94 Z" fill="#000000"></path><path d="M 321 145.94 C 326.328 145.94 326.328 153.94 321 153.94 C 315.672 153.94 315.672 145.94 321 145.94 Z" fill="#000000"></path><path d="M 263 127.32 C 268.328 127.32 268.328 135.32 263 135.32 C 257.672 135.32 257.672 127.32 263 127.32 Z" fill="#000000"></path><path d="M 204 77.34 C 209.328 77.34 209.328 85.34 204 85.34 C 198.672 85.34 198.672 77.34 204 77.34 Z" fill="#000000"></path><path d="M 146 121.44 C 151.328 121.44 151.328 129.44 146 129.44 C 140.672 129.44 140.672 121.44 146 121.44 Z" fill="#000000"></path><path d="M 87 114.58 C 92.328 114.58 92.328 122.58 87 122.58 C 81.672 122.58 81.672 114.58 87 114.58 Z" fill="#000000"></path><path d="M 29 93.02 C 34.328 93.02 34.328 101.02 29 101.02 C 23.672 101.02 23.672 93.02 29 93.02 Z" fill="#000000"></path></g><g clip-path="url(#highcharts-63)" transform="translate(115,136) scale(1 1)"  visibility="visible" class="highcharts-series"><path stroke-linecap="round" stroke-linejoin="round"  stroke-width="2" stroke="#ba0f27" d="M 29.26923076923077 39.19999999999999 C 29.26923076923077 39.19999999999999 64.3923076923077 75.78666666666666 87.8076923076923 91.46666666666667 C 111.2230769230769 107.14666666666666 122.93076923076924 117.6 146.34615384615384 117.6 C 169.76153846153846 117.6 181.46923076923076 65.33333333333334 204.8846153846154 65.33333333333334 C 228.3 65.33333333333334 240.00769230769228 99.30666666666666 263.4230769230769 111.06666666666666 C 286.8384615384615 122.82666666666665 298.5461538461538 124.13333333333334 321.96153846153845 124.13333333333334 C 345.37692307692305 124.13333333333334 357.0846153846154 91.46666666666667 380.5 91.46666666666667 C 403.9153846153846 91.46666666666667 415.62307692307695 125.44000000000003 439.03846153846155 137.2 C 462.4538461538462 148.96 474.1615384615385 150.26666666666665 497.5769230769231 150.26666666666665 C 520.9923076923076 150.26666666666665 532.7 98 556.1153846153845 98 C 579.5307692307691 98 591.2384615384615 98 614.6538461538461 98 C 638.0692307692307 98 649.776923076923 124.13333333333334 673.1923076923076 124.13333333333334 C 696.6076923076922 124.13333333333334 731.7307692307692 39.19999999999999 731.7307692307692 39.19999999999999" fill="none"></path></g><g clip-path="none" transform="translate(115,136) scale(1 1)"  visibility="visible" class="highcharts-markers"><path d="M 731 35.19999999999999 L 735 39.19999999999999 731 43.19999999999999 727 39.19999999999999 Z" fill="#ba0f27"></path><path d="M 673 120.13333333333334 L 677 124.13333333333334 673 128.13333333333333 669 124.13333333333334 Z" fill="#ba0f27"></path><path d="M 614 94 L 618 98 614 102 610 98 Z" fill="#ba0f27"></path><path d="M 556 94 L 560 98 556 102 552 98 Z" fill="#ba0f27"></path><path d="M 497 146.26666666666665 L 501 150.26666666666665 497 154.26666666666665 493 150.26666666666665 Z" fill="#ba0f27"></path><path d="M 439 133.2 L 443 137.2 439 141.2 435 137.2 Z" fill="#ba0f27"></path><path d="M 380 87.46666666666667 L 384 91.46666666666667 380 95.46666666666667 376 91.46666666666667 Z" fill="#ba0f27"></path><path d="M 321 120.13333333333334 L 325 124.13333333333334 321 128.13333333333333 317 124.13333333333334 Z" fill="#ba0f27"></path><path d="M 263 107.06666666666666 L 267 111.06666666666666 263 115.06666666666666 259 111.06666666666666 Z" fill="#ba0f27"></path><path d="M 204 61.33333333333334 L 208 65.33333333333334 204 69.33333333333334 200 65.33333333333334 Z" fill="#ba0f27"></path><path d="M 146 113.6 L 150 117.6 146 121.6 142 117.6 Z" fill="#ba0f27"></path><path d="M 87 87.46666666666667 L 91 91.46666666666667 87 95.46666666666667 83 91.46666666666667 Z" fill="#ba0f27"></path><path d="M 29 35.19999999999999 L 33 39.19999999999999 29 43.19999999999999 25 39.19999999999999 Z" fill="#ba0f27"></path></g></g><text y="24" style="color:#777;font-size:18px;fill:#777;width:976px;"  class="highcharts-title" text-anchor="middle" x="520"><tspan style="fill:#ba0f27;font-size:24px;font-weight:bold;font-family: 'lora'">Worldwide non-commercial space launches</tspan><tspan dy="21" x="520" style="font-family: 'lora'"> correlates with </tspan><tspan dy="29" x="520" style="fill:#000000;font-size:24px;font-weight:bold;font-family: 'lora'">Sociology doctorates awarded (US)</tspan></text><g transform="translate(256,368)"  class="highcharts-legend"><g ><g><g transform="translate(8,3)"  class="highcharts-legend-item"><path stroke-width="2" stroke="#000000" d="M 0 11 L 16 11" fill="none"></path><path d="M 8 7 C 13.328 7 13.328 15 8 15 C 2.6719999999999997 15 2.6719999999999997 7 8 7 Z" fill="#000000"></path><text y="15"  text-anchor="start" style="color:#333333;font-size:12px;font-weight:bold;cursor:pointer;fill:#333333;" x="21"><tspan>Sociology doctorates awarded (US)</tspan></text></g><g transform="translate(246.8000030517578,3)"  class="highcharts-legend-item"><path stroke-width="2" stroke="#ba0f27" d="M 0 11 L 16 11" fill="none"></path><path d="M 8 7 L 12 11 8 15 4 11 Z" fill="#ba0f27"></path><text  text-anchor="start" style="color:#333333;font-size:12px;font-weight:bold;cursor:pointer;fill:#333333;" y="15" x="21"><tspan>Worldwide non-commercial space launches</tspan></text></g></g></g></g><g  class="highcharts-axis-labels highcharts-xaxis-labels"><text opacity="1" y="351" transform="translate(0,0)" text-anchor="middle" style="color:#000000;cursor:default;font-size:11px;fill:#000000;" x="144.26923076923077">1997</text><text opacity="1" y="351" transform="translate(0,0)" text-anchor="middle" style="color:#000000;cursor:default;font-size:11px;fill:#000000;" x="202.80769230769232">1998</text><text opacity="1" y="351" transform="translate(0,0)" text-anchor="middle" style="color:#000000;cursor:default;font-size:11px;fill:#000000;" x="261.34615384615387">1999</text><text opacity="1" y="351" transform="translate(0,0)" text-anchor="middle" style="color:#000000;cursor:default;font-size:11px;fill:#000000;" x="319.8846153846154">2000</text><text opacity="1" y="351" transform="translate(0,0)" text-anchor="middle" style="color:#000000;cursor:default;font-size:11px;fill:#000000;" x="378.4230769230769">2001</text><text opacity="1" y="351" transform="translate(0,0)" text-anchor="middle" style="color:#000000;cursor:default;font-size:11px;fill:#000000;" x="436.96153846153845">2002</text><text opacity="1" y="351" transform="translate(0,0)" text-anchor="middle" style="color:#000000;cursor:default;font-size:11px;fill:#000000;" x="495.49999999999994">2003</text><text opacity="1" y="351" transform="translate(0,0)" text-anchor="middle" style="color:#000000;cursor:default;font-size:11px;fill:#000000;" x="554.0384615384617">2004</text><text opacity="1" y="351" transform="translate(0,0)" text-anchor="middle" style="color:#000000;cursor:default;font-size:11px;fill:#000000;" x="612.5769230769231">2005</text><text opacity="1" y="351" transform="translate(0,0)" text-anchor="middle" style="color:#000000;cursor:default;font-size:11px;fill:#000000;" x="671.1153846153846">2006</text><text opacity="1" y="351" transform="translate(0,0)" text-anchor="middle" style="color:#000000;cursor:default;font-size:11px;fill:#000000;" x="729.6538461538462">2007</text><text opacity="1" y="351" transform="translate(0,0)" text-anchor="middle" style="color:#000000;cursor:default;font-size:11px;fill:#000000;" x="788.1923076923077">2008</text><text opacity="1" y="351" transform="translate(0,0)" text-anchor="middle" style="color:#000000;cursor:default;font-size:11px;fill:#000000;" x="846.7307692307693">2009</text></g><g  class="highcharts-axis-labels highcharts-xaxis-labels"><text opacity="1" y="121" transform="translate(0,0)" text-anchor="middle" style="color:#ba0f27;cursor:default;font-size:11px;fill:#ba0f27;" x="144.26923076923077">1997</text><text opacity="1" y="121" transform="translate(0,0)" text-anchor="middle" style="color:#ba0f27;cursor:default;font-size:11px;fill:#ba0f27;" x="202.80769230769232">1998</text><text opacity="1" y="121" transform="translate(0,0)" text-anchor="middle" style="color:#ba0f27;cursor:default;font-size:11px;fill:#ba0f27;" x="261.34615384615387">1999</text><text opacity="1" y="121" transform="translate(0,0)" text-anchor="middle" style="color:#ba0f27;cursor:default;font-size:11px;fill:#ba0f27;" x="319.8846153846154">2000</text><text opacity="1" y="121" transform="translate(0,0)" text-anchor="middle" style="color:#ba0f27;cursor:default;font-size:11px;fill:#ba0f27;" x="378.4230769230769">2001</text><text opacity="1" y="121" transform="translate(0,0)" text-anchor="middle" style="color:#ba0f27;cursor:default;font-size:11px;fill:#ba0f27;" x="436.96153846153845">2002</text><text opacity="1" y="121" transform="translate(0,0)" text-anchor="middle" style="color:#ba0f27;cursor:default;font-size:11px;fill:#ba0f27;" x="495.49999999999994">2003</text><text opacity="1" y="121" transform="translate(0,0)" text-anchor="middle" style="color:#ba0f27;cursor:default;font-size:11px;fill:#ba0f27;" x="554.0384615384617">2004</text><text opacity="1" y="121" transform="translate(0,0)" text-anchor="middle" style="color:#ba0f27;cursor:default;font-size:11px;fill:#ba0f27;" x="612.5769230769231">2005</text><text opacity="1" y="121" transform="translate(0,0)" text-anchor="middle" style="color:#ba0f27;cursor:default;font-size:11px;fill:#ba0f27;" x="671.1153846153846">2006</text><text opacity="1" y="121" transform="translate(0,0)" text-anchor="middle" style="color:#ba0f27;cursor:default;font-size:11px;fill:#ba0f27;" x="729.6538461538462">2007</text><text opacity="1" y="121" transform="translate(0,0)" text-anchor="middle" style="color:#ba0f27;cursor:default;font-size:11px;fill:#ba0f27;" x="788.1923076923077">2008</text><text opacity="1" y="121" transform="translate(0,0)" text-anchor="middle" style="color:#ba0f27;cursor:default;font-size:11px;fill:#ba0f27;" x="846.7307692307693">2009</text></g><g  class="highcharts-axis-labels highcharts-yaxis-labels"><text opacity="1" y="335" transform="translate(0,0)" text-anchor="start" style="color:#000000;cursor:default;font-size:11px;fill:#000000;width:333px;text-overflow:clip;" x="891"><tspan>500 Degrees awarded</tspan></text><text opacity="1" y="286" transform="translate(0,0)" text-anchor="start" style="color:#000000;cursor:default;font-size:11px;fill:#000000;width:333px;text-overflow:clip;" x="891"><tspan>550 Degrees awarded</tspan></text><text opacity="1" y="237" transform="translate(0,0)" text-anchor="start" style="color:#000000;cursor:default;font-size:11px;fill:#000000;width:333px;text-overflow:clip;" x="891"><tspan>600 Degrees awarded</tspan></text><text opacity="1" y="188" transform="translate(0,0)" text-anchor="start" style="color:#000000;cursor:default;font-size:11px;fill:#000000;width:333px;text-overflow:clip;" x="891"><tspan>650 Degrees awarded</tspan></text><text opacity="1" y="139" transform="translate(0,0)" text-anchor="start" style="color:#000000;cursor:default;font-size:11px;fill:#000000;width:333px;text-overflow:clip;" x="891"><tspan>700 Degrees awarded</tspan></text></g><g  class="highcharts-axis-labels highcharts-yaxis-labels"><text opacity="1" y="270" transform="translate(0,0)" text-anchor="end" style="color:#ba0f27;cursor:default;font-size:11px;fill:#ba0f27;width:333px;text-overflow:clip;" x="100"><tspan>40 Launches</tspan></text><text opacity="1" y="204" transform="translate(0,0)" text-anchor="end" style="color:#ba0f27;cursor:default;font-size:11px;fill:#ba0f27;width:333px;text-overflow:clip;" x="100"><tspan>50 Launches</tspan></text><text opacity="1" y="335" transform="translate(0,0)" text-anchor="end" style="color:#ba0f27;cursor:default;font-size:11px;fill:#ba0f27;width:333px;text-overflow:clip;" x="100"><tspan>30 Launches</tspan></text><text opacity="1" y="139" transform="translate(0,0)" text-anchor="end" style="color:#ba0f27;cursor:default;font-size:11px;fill:#ba0f27;width:333px;text-overflow:clip;" x="100"><tspan>60 Launches</tspan></text></g><g transform="translate(0,-9999)" style="cursor:default;padding:0;white-space:nowrap;"  class="highcharts-tooltip"><path transform="translate(1, 1)" stroke-width="5" stroke-opacity="0.049999999999999996" stroke="black"  d="M 3 0 L 13 0 C 16 0 16 0 16 3 L 16 13 C 16 16 16 16 13 16 L 3 16 C 0 16 0 16 0 13 L 0 3 C 0 0 0 0 3 0" fill="none"></path><path transform="translate(1, 1)" stroke-width="3" stroke-opacity="0.09999999999999999" stroke="black"  d="M 3 0 L 13 0 C 16 0 16 0 16 3 L 16 13 C 16 16 16 16 13 16 L 3 16 C 0 16 0 16 0 13 L 0 3 C 0 0 0 0 3 0" fill="none"></path><path transform="translate(1, 1)" stroke-width="1" stroke-opacity="0.15" stroke="black"  d="M 3 0 L 13 0 C 16 0 16 0 16 3 L 16 13 C 16 16 16 16 13 16 L 3 16 C 0 16 0 16 0 13 L 0 3 C 0 0 0 0 3 0" fill="none"></path><path d="M 3 0 L 13 0 C 16 0 16 0 16 3 L 16 13 C 16 16 16 16 13 16 L 3 16 C 0 16 0 16 0 13 L 0 3 C 0 0 0 0 3 0" fill="rgb(249, 249, 249)" fill-opacity=" .85"></path><text transform="translate(0,20)" style="font-size:12px;color:#333333;fill:#333333;"  x="8"></text></g><text y="405" style="cursor:pointer;color:#909090;font-size:9px;fill:#909090;"  text-anchor="end" x="1030">tylervigen.com</text></svg>