<svg xmlns="http://www.w3.org/2000/svg" xmlns:xlink="http://www.w3.org/1999/xlink" width="300" height="300" viewBox="383860.5536619192 4202763.880314045 5010.274849566398 3788.7015817165375" preserveAspectRatio="xMinYMin meet"><g transform="matrix(1,0,0,-1,0,8409316.462209806)"><path fill-rule="evenodd" fill="#66cc99" stroke="#555555" stroke-width="33.40183233044265" opacity="0.6" d="M 385390.07103629207,4202949.446049213 L 384488.6965349777,4203020.717818107 L 384753.0765711785,4203427.801822938 L 384677.4959547153,4203840.138584375 L 384246.41023591015,4204192.825467478 L 384190.7473467802,4204258.444493887 L 384388.6053374556,4204487.589725824 L 384632.7731201378,4204659.064297296 L 384493.9755692274,4205622.242300161 L 384046.1193970883,4206025.334768435 L 384383.53640294774,4206367.016160592 L 384465.8594636576,4206306.481173671 L 384484.1597648995,4206265.2343718195 L 385183.72476620704,4205734.486373279 L 385203.2339821843,4205737.328276448 L 385222.7018852085,4205738.721866815 L 385668.5174538856,4205618.828274368 L 385882.68418758956,4205373.044171383 L 385946.0737471923,4205320.13202918 L 387073.33259073616,4205719.57448895 L 387251.608314635,4206111.810060351 L 387585.0993401561,4205633.779646993 L 388272.539515024,4205421.033183669 L 388685.2627763165,4205396.540836621 L 388493.18603282,4204839.78815067 L 388049.00995764235,4204380.916804809 L 388033.3373060529,4204181.306817622 L 387835.06108909316,4203914.344983151 L 387650.9480480584,4203915.972407358 L 387111.80549999943,4204013.97175 L 386249.8728894429,4203296.069011905 L 385390.07103629207,4202949.446049213 z" /></g></svg>